<mxfile host="app.diagrams.net" modified="2021-01-14T16:51:38.436Z" agent="5.0 (Macintosh; Intel Mac OS X 10_15_6) AppleWebKit/605.1.15 (KHTML, like Gecko) Version/14.0.2 Safari/605.1.15" etag="r-w4SD6djbQJt7rnDlCk" version="14.1.8" type="github">
  <diagram id="drHejXCKicsVfyBPNSBx" name="第 1 页">
    <mxGraphModel dx="870" dy="569" grid="1" gridSize="10" guides="1" tooltips="1" connect="1" arrows="1" fold="1" page="1" pageScale="1" pageWidth="827" pageHeight="1169" math="0" shadow="0">
      <root>
        <mxCell id="0" />
        <mxCell id="1" parent="0" />
        <mxCell id="JWzy1GHwm0omU-iiL3PM-5" style="edgeStyle=orthogonalEdgeStyle;rounded=0;orthogonalLoop=1;jettySize=auto;html=1;entryX=0;entryY=0.5;entryDx=0;entryDy=0;fontFamily=Courier New;fontSize=16;dashed=1;startArrow=classic;startFill=1;endArrow=none;endFill=0;" edge="1" parent="1" source="JWzy1GHwm0omU-iiL3PM-1" target="JWzy1GHwm0omU-iiL3PM-3">
          <mxGeometry relative="1" as="geometry" />
        </mxCell>
        <mxCell id="JWzy1GHwm0omU-iiL3PM-1" value="传输层" style="rounded=1;whiteSpace=wrap;html=1;fontSize=16;fontFamily=Courier New;fillColor=#ffcc99;strokeColor=none;" vertex="1" parent="1">
          <mxGeometry x="240" y="200" width="120" height="60" as="geometry" />
        </mxCell>
        <mxCell id="JWzy1GHwm0omU-iiL3PM-2" value="传输层" style="rounded=1;whiteSpace=wrap;html=1;fontSize=16;fontFamily=Courier New;fillColor=#ffcc99;strokeColor=none;" vertex="1" parent="1">
          <mxGeometry x="520" y="200" width="120" height="60" as="geometry" />
        </mxCell>
        <mxCell id="JWzy1GHwm0omU-iiL3PM-6" style="edgeStyle=orthogonalEdgeStyle;rounded=0;orthogonalLoop=1;jettySize=auto;html=1;entryX=0.5;entryY=1;entryDx=0;entryDy=0;fontFamily=Courier New;fontSize=16;exitX=1;exitY=0.5;exitDx=0;exitDy=0;dashed=1;" edge="1" parent="1" source="JWzy1GHwm0omU-iiL3PM-3" target="JWzy1GHwm0omU-iiL3PM-2">
          <mxGeometry relative="1" as="geometry" />
        </mxCell>
        <mxCell id="JWzy1GHwm0omU-iiL3PM-3" value="网络层" style="rounded=1;whiteSpace=wrap;html=1;fontFamily=Courier New;fontSize=16;fillColor=#ffcccc;strokeColor=none;" vertex="1" parent="1">
          <mxGeometry x="360" y="330" width="170" height="60" as="geometry" />
        </mxCell>
        <mxCell id="JWzy1GHwm0omU-iiL3PM-9" style="edgeStyle=orthogonalEdgeStyle;rounded=0;orthogonalLoop=1;jettySize=auto;html=1;entryX=0.5;entryY=0;entryDx=0;entryDy=0;startArrow=classic;startFill=1;endArrow=classic;endFill=1;fontFamily=Courier New;fontSize=16;" edge="1" parent="1" source="JWzy1GHwm0omU-iiL3PM-7" target="JWzy1GHwm0omU-iiL3PM-1">
          <mxGeometry relative="1" as="geometry" />
        </mxCell>
        <mxCell id="JWzy1GHwm0omU-iiL3PM-7" value="应用层" style="rounded=1;whiteSpace=wrap;html=1;fontSize=16;fontFamily=Courier New;fillColor=#cce5ff;strokeColor=none;" vertex="1" parent="1">
          <mxGeometry x="240" y="80" width="120" height="60" as="geometry" />
        </mxCell>
        <mxCell id="JWzy1GHwm0omU-iiL3PM-10" style="edgeStyle=orthogonalEdgeStyle;rounded=0;orthogonalLoop=1;jettySize=auto;html=1;entryX=0.5;entryY=0;entryDx=0;entryDy=0;startArrow=classic;startFill=1;endArrow=classic;endFill=1;fontFamily=Courier New;fontSize=16;" edge="1" parent="1" source="JWzy1GHwm0omU-iiL3PM-8" target="JWzy1GHwm0omU-iiL3PM-2">
          <mxGeometry relative="1" as="geometry" />
        </mxCell>
        <mxCell id="JWzy1GHwm0omU-iiL3PM-8" value="应用层" style="rounded=1;whiteSpace=wrap;html=1;fontSize=16;fontFamily=Courier New;fillColor=#cce5ff;strokeColor=none;" vertex="1" parent="1">
          <mxGeometry x="520" y="80" width="120" height="60" as="geometry" />
        </mxCell>
      </root>
    </mxGraphModel>
  </diagram>
</mxfile>
